# Blender v2.79 (sub 0) OBJ File: ''
# www.blender.org
mtllib light.mtl
o Icosphere
v 0.000000 -2.000000 0.000000
v 1.447215 -0.894439 1.051451
v -0.552776 -0.894440 1.701298
v -1.788852 -0.894431 0.000000
v -0.552776 -0.894440 -1.701298
v 1.447215 -0.894439 -1.051451
v 0.552776 0.894440 1.701298
v -1.447215 0.894439 1.051451
v -1.447215 0.894439 -1.051451
v 0.552776 0.894440 -1.701298
v 1.788852 0.894431 0.000000
v 0.000000 2.000000 0.000000
v -0.324911 -1.701309 0.999991
v 0.850645 -1.701308 0.618023
v 0.525738 -1.051475 1.618023
v 1.701296 -1.051472 0.000000
v 0.850645 -1.701308 -0.618023
v -1.051460 -1.701303 0.000000
v -1.376379 -1.051472 0.999994
v -0.324911 -1.701309 -0.999991
v -1.376379 -1.051472 -0.999994
v 0.525738 -1.051475 -1.618023
v 1.902116 -0.000000 0.618025
v 1.902116 -0.000000 -0.618025
v 0.000000 -0.000000 2.000000
v 1.175571 -0.000000 1.618033
v -1.902116 -0.000000 0.618025
v -1.175571 -0.000000 1.618033
v -1.175571 -0.000000 -1.618033
v -1.902116 -0.000000 -0.618025
v 1.175571 -0.000000 -1.618033
v 0.000000 -0.000000 -2.000000
v 1.376379 1.051472 0.999994
v -0.525738 1.051475 1.618023
v -1.701296 1.051472 0.000000
v -0.525738 1.051475 -1.618023
v 1.376379 1.051472 -0.999994
v 0.324911 1.701309 0.999991
v 1.051460 1.701303 0.000000
v -0.850645 1.701308 0.618023
v -0.850645 1.701308 -0.618023
v 0.324911 1.701309 -0.999991
v 0.000000 30.555555 -1.125000
v -0.795495 30.555555 -0.795495
v -1.125000 30.555555 0.000000
v -0.795495 30.555555 0.795495
v 0.000000 30.555555 1.125000
v 0.795495 30.555555 0.795495
v 1.125000 30.555555 -0.000000
v 0.795495 30.555555 -0.795495
v -0.000000 29.055555 0.000000
v -0.000000 -0.288675 -0.408248
v -0.000000 30.288675 -0.408248
v 0.408248 -0.288675 0.000000
v 0.408248 30.288675 0.000000
v -0.000000 -0.288675 0.408248
v -0.000000 30.288675 0.408248
v -0.408248 -0.288675 -0.000000
v -0.408248 30.288675 -0.000000
vt 0.568113 0.053319
vt 0.559152 0.021979
vt 0.675730 0.041333
vt 0.552867 0.000000
vt 0.445997 0.014595
vt 0.643586 0.077251
vt 0.507140 0.080095
vt 0.454959 0.045935
vt 0.214193 0.212539
vt 0.309127 0.220161
vt 0.235601 0.244698
vt 0.018506 0.189265
vt 0.114029 0.195101
vt 0.000000 0.215530
vt 0.312499 0.128421
vt 0.280957 0.156438
vt 0.205298 0.125649
vt 0.527415 0.109481
vt 0.593456 0.136854
vt 0.460439 0.135085
vt 0.441494 0.285886
vt 0.376912 0.258840
vt 0.503236 0.259109
vt 0.115022 0.229211
vt 0.214916 0.183812
vt 0.097274 0.189265
vt 0.147939 0.158207
vt 0.624998 0.164872
vt 0.559940 0.189265
vt 0.517798 0.167643
vt 0.409773 0.104027
vt 0.560595 0.291667
vt 0.020196 0.247295
vt 0.121573 0.265127
vt 0.010600 0.273644
vt 0.086198 0.131430
vt 0.021616 0.158476
vt 0.000903 0.126084
vt 0.177266 0.104027
vt 0.070395 0.089432
vt 0.183550 0.082049
vt 0.375602 0.071100
vt 0.291168 0.094035
vt 0.300128 0.062695
vt 0.320913 0.009993
vt 0.375602 0.038762
vt 0.267984 0.026777
vt 0.192512 0.050709
vt 0.636253 0.260878
vt 0.570212 0.233504
vt 0.667796 0.230913
vt 0.334115 0.134817
vt 0.398697 0.161863
vt 0.313402 0.167208
vt 0.079357 0.058093
vt 0.000000 0.063271
vt 0.131538 0.023933
vt 0.018383 0.031316
vt 0.088777 0.005154
vt 0.207011 0.000000
vt 0.667795 0.288895
vt 0.312499 0.109024
vt 0.426923 0.187496
vt 0.247440 0.104027
vt 0.114423 0.105796
vt 0.000000 0.184268
vt 0.225337 0.273644
vt 0.452570 0.228051
vt 0.355296 0.233048
vt 0.602737 0.313288
vt 0.469720 0.311520
vt 0.356199 0.291232
vt 0.393984 0.072711
vt 0.464379 0.098874
vt 0.624998 0.106890
vt 0.582613 0.104027
vt 0.696515 0.094035
vt 0.751203 0.065265
vt 0.312499 0.186403
vt 0.375602 0.040757
vt 0.666769 0.009993
vt 0.751203 0.032927
vt 0.233991 0.189509
vt 0.275539 0.781788
vt 0.378314 0.762135
vt 0.327770 0.789848
vt 0.378314 0.796993
vt 0.481090 0.762135
vt 0.481090 0.796993
vt 0.430545 0.769280
vt 0.378314 0.777340
vt 0.668796 0.572870
vt 0.668796 0.605537
vt 0.615590 0.580451
vt 0.564184 0.587133
vt 0.481090 0.780540
vt 0.585702 0.762135
vt 0.532496 0.787221
vt 0.585702 0.794802
vt 1.000000 0.104027
vt 1.000000 0.999988
vt 0.984375 1.000000
vt 0.984374 0.104039
vt 0.953123 0.104039
vt 0.953123 1.000000
vt 0.937498 0.999988
vt 0.937497 0.104027
vt 0.965784 0.058259
vt 0.981441 0.058259
vt 0.981441 0.062487
vt 0.965784 0.062487
vt 0.968749 0.104039
vt 0.968749 1.000000
vt 0.953124 0.999988
vt 0.953123 0.104027
vt 0.984374 0.104027
vt 0.984374 0.999988
vt 0.968749 1.000000
vt 0.968749 0.104039
vt 0.965784 0.062487
vt 0.981441 0.062487
vt 0.981441 0.066714
vt 0.965784 0.066714
vn 0.0000 -1.0000 0.0000
vn 0.4253 -0.8506 0.3090
vn -0.1625 -0.8506 0.5000
vn 0.7236 -0.4472 0.5257
vn 0.8506 -0.5257 0.0000
vn -0.5257 -0.8506 0.0000
vn -0.1625 -0.8506 -0.5000
vn 0.4253 -0.8506 -0.3090
vn 0.9510 0.0000 0.3090
vn -0.2764 -0.4472 0.8506
vn 0.2629 -0.5257 0.8090
vn 0.0000 0.0000 1.0000
vn -0.8944 -0.4472 0.0000
vn -0.6882 -0.5257 0.5000
vn -0.9510 0.0000 0.3090
vn -0.2764 -0.4472 -0.8506
vn -0.6882 -0.5257 -0.5000
vn -0.5878 0.0000 -0.8090
vn 0.7236 -0.4472 -0.5257
vn 0.2629 -0.5257 -0.8090
vn 0.5878 0.0000 -0.8090
vn 0.5878 0.0000 0.8090
vn -0.5878 0.0000 0.8090
vn -0.9510 0.0000 -0.3090
vn 0.0000 0.0000 -1.0000
vn 0.9510 0.0000 -0.3090
vn 0.2764 0.4472 0.8506
vn 0.6882 0.5257 0.5000
vn 0.1625 0.8506 0.5000
vn -0.7236 0.4472 0.5257
vn -0.2629 0.5257 0.8090
vn -0.4253 0.8506 0.3090
vn -0.7236 0.4472 -0.5257
vn -0.8506 0.5257 0.0000
vn -0.4253 0.8506 -0.3090
vn 0.2764 0.4472 -0.8506
vn -0.2629 0.5257 -0.8090
vn 0.1625 0.8506 -0.5000
vn 0.8944 0.4472 0.0000
vn 0.6882 0.5257 -0.5000
vn 0.5257 0.8506 0.0000
vn 0.0000 1.0000 0.0000
vn 0.0000 -0.6000 -0.8000
vn -0.5657 -0.6000 -0.5657
vn -0.8000 -0.6000 0.0000
vn -0.5657 -0.6000 0.5657
vn 0.0000 -0.6000 0.8000
vn 0.5657 -0.6000 0.5657
vn 0.8000 -0.6000 0.0000
vn 0.5657 -0.6000 -0.5657
vn 0.0000 -0.5773 -0.8165
vn 0.0000 0.5773 -0.8165
vn 0.8165 0.5773 0.0000
vn 0.8165 -0.5773 0.0000
vn 0.0000 0.5773 0.8165
vn 0.0000 -0.5773 0.8165
vn -0.8165 0.5773 0.0000
vn -0.8165 -0.5773 0.0000
usemtl None
s 1
f 1/1/1 14/2/2 13/3/3
f 2/4/4 14/2/2 16/5/5
f 1/1/1 13/3/3 18/6/6
f 1/1/1 18/6/6 20/7/7
f 1/1/1 20/7/7 17/8/8
f 2/9/4 16/10/5 23/11/9
f 3/12/10 15/13/11 25/14/12
f 4/15/13 19/16/14 27/17/15
f 5/18/16 21/19/17 29/20/18
f 6/21/19 22/22/20 31/23/21
f 2/9/4 23/11/9 26/24/22
f 3/25/10 25/26/12 28/27/23
f 4/28/13 27/29/15 30/30/24
f 5/18/16 29/20/18 32/31/25
f 6/21/19 31/23/21 24/32/26
f 7/33/27 33/34/28 38/35/29
f 8/36/30 34/37/31 40/38/32
f 9/39/33 35/40/34 41/41/35
f 10/42/36 36/43/37 42/44/38
f 11/45/39 37/46/40 39/47/41
f 39/47/41 42/44/38 12/48/42
f 39/47/41 37/46/40 42/44/38
f 37/49/40 10/50/36 42/51/38
f 42/44/38 41/41/35 12/48/42
f 42/44/38 36/43/37 41/41/35
f 36/52/37 9/53/33 41/54/35
f 41/41/35 40/55/32 12/48/42
f 41/41/35 35/40/34 40/55/32
f 35/40/34 8/56/30 40/55/32
f 40/55/32 38/57/29 12/48/42
f 40/55/32 34/58/31 38/57/29
f 34/58/31 7/59/27 38/57/29
f 38/57/29 39/47/41 12/48/42
f 38/57/29 33/60/28 39/47/41
f 33/60/28 11/45/39 39/47/41
f 24/32/26 37/49/40 11/61/39
f 24/32/26 31/23/21 37/49/40
f 31/23/21 10/50/36 37/49/40
f 32/31/25 36/52/37 10/62/36
f 32/31/25 29/20/18 36/52/37
f 29/20/18 9/53/33 36/52/37
f 30/30/24 35/63/34 9/53/33
f 30/64/24 27/17/15 35/65/34
f 27/17/15 8/36/30 35/65/34
f 28/27/23 34/37/31 8/36/30
f 28/27/23 25/26/12 34/37/31
f 25/26/12 7/66/27 34/37/31
f 26/24/22 33/34/28 7/33/27
f 26/24/22 23/11/9 33/34/28
f 23/11/9 11/67/39 33/34/28
f 31/23/21 32/68/25 10/50/36
f 31/23/21 22/22/20 32/68/25
f 22/22/20 5/69/16 32/68/25
f 29/20/18 30/30/24 9/53/33
f 29/20/18 21/19/17 30/30/24
f 21/19/17 4/28/13 30/30/24
f 27/17/15 28/27/23 8/36/30
f 27/17/15 19/16/14 28/27/23
f 19/16/14 3/25/10 28/27/23
f 25/14/12 26/24/22 7/33/27
f 25/14/12 15/13/11 26/24/22
f 15/13/11 2/9/4 26/24/22
f 23/70/9 24/32/26 11/61/39
f 23/70/9 16/71/5 24/32/26
f 16/71/5 6/21/19 24/32/26
f 17/72/8 22/22/20 6/21/19
f 17/8/8 20/7/7 22/73/20
f 20/7/7 5/74/16 22/73/20
f 20/75/7 21/19/17 5/18/16
f 20/7/7 18/6/6 21/76/17
f 18/6/6 4/77/13 21/76/17
f 18/6/6 19/78/14 4/77/13
f 18/6/6 13/3/3 19/78/14
f 13/79/3 3/25/10 19/16/14
f 16/5/5 17/8/8 6/80/19
f 16/5/5 14/2/2 17/8/8
f 14/2/2 1/1/1 17/8/8
f 13/3/3 15/81/11 3/82/10
f 13/3/3 14/2/2 15/81/11
f 14/83/2 2/9/4 15/13/11
f 43/84/43 51/85/1 44/86/44
f 44/86/44 51/85/1 45/87/45
f 45/88/45 51/89/1 46/90/46
f 46/90/46 51/89/1 47/91/47
f 47/92/47 51/93/1 48/94/48
f 48/94/48 51/93/1 49/95/49
f 49/96/49 51/97/1 50/98/50
f 50/98/50 51/97/1 43/99/43
f 52/100/51 53/101/52 55/102/53 54/103/54
f 54/104/54 55/105/53 57/106/55 56/107/56
f 55/108/53 53/109/52 59/110/57 57/111/55
f 56/112/56 57/113/55 59/114/57 58/115/58
f 58/116/58 59/117/57 53/118/52 52/119/51
f 52/120/51 54/121/54 56/122/56 58/123/58
