# Blender v2.79 (sub 0) OBJ File: ''
# www.blender.org
mtllib fitting.mtl
v 0.224025 0.000000 0.000000
v 0.267327 0.000000 0.000000
v 0.224025 0.000000 -0.060209
v 0.267327 0.000000 -0.060209
v 0.224025 -0.023041 -0.055626
v 0.267327 -0.023041 -0.055626
v 0.224025 -0.042574 -0.042574
v 0.267327 -0.042574 -0.042574
v 0.224025 -0.055626 -0.023041
v 0.267327 -0.055626 -0.023041
v 0.224025 -0.060209 0.000000
v 0.267327 -0.060209 0.000000
v 0.224025 -0.055626 0.023041
v 0.267327 -0.055626 0.023041
v 0.224025 -0.042574 0.042574
v 0.267327 -0.042574 0.042574
v 0.224025 -0.023041 0.055626
v 0.267327 -0.023041 0.055626
v 0.224025 -0.000000 0.060209
v 0.267327 -0.000000 0.060209
v 0.224025 0.023041 0.055626
v 0.267327 0.023041 0.055626
v 0.224025 0.042574 0.042574
v 0.267327 0.042574 0.042574
v 0.224025 0.055626 0.023041
v 0.267327 0.055626 0.023041
v 0.224025 0.060209 -0.000000
v 0.267327 0.060209 -0.000000
v 0.224025 0.055626 -0.023041
v 0.267327 0.055626 -0.023041
v 0.224025 0.042574 -0.042574
v 0.267327 0.042574 -0.042574
v 0.224025 0.023041 -0.055626
v 0.267327 0.023041 -0.055626
v 0.224025 0.134340 0.042574
v 0.267327 0.134340 0.042574
v 0.224025 0.134340 0.023041
v 0.267327 0.134340 0.023041
v 0.224025 0.134340 -0.000000
v 0.267327 0.134340 -0.000000
v 0.224025 0.134340 -0.023041
v 0.267327 0.134340 -0.023041
v 0.224025 0.134340 -0.042574
v 0.267327 0.134340 -0.042574
v -0.224025 0.000000 0.000000
v -0.267327 0.000000 0.000000
v -0.224025 0.000000 -0.060209
v -0.267327 0.000000 -0.060209
v -0.224025 -0.023041 -0.055626
v -0.267327 -0.023041 -0.055626
v -0.224025 -0.042574 -0.042574
v -0.267327 -0.042574 -0.042574
v -0.224025 -0.055626 -0.023041
v -0.267327 -0.055626 -0.023041
v -0.224025 -0.060209 0.000000
v -0.267327 -0.060209 0.000000
v -0.224025 -0.055626 0.023041
v -0.267327 -0.055626 0.023041
v -0.224025 -0.042574 0.042574
v -0.267327 -0.042574 0.042574
v -0.224025 -0.023041 0.055626
v -0.267327 -0.023041 0.055626
v -0.224025 -0.000000 0.060209
v -0.267327 -0.000000 0.060209
v -0.224025 0.023041 0.055626
v -0.267327 0.023041 0.055626
v -0.224025 0.042574 0.042574
v -0.267327 0.042574 0.042574
v -0.224025 0.055626 0.023041
v -0.267327 0.055626 0.023041
v -0.224025 0.060209 -0.000000
v -0.267327 0.060209 -0.000000
v -0.224025 0.055626 -0.023041
v -0.267327 0.055626 -0.023041
v -0.224025 0.042574 -0.042574
v -0.267327 0.042574 -0.042574
v -0.224025 0.023041 -0.055626
v -0.267327 0.023041 -0.055626
v -0.224025 0.134340 0.042574
v -0.267327 0.134340 0.042574
v -0.224025 0.134340 0.023041
v -0.267327 0.134340 0.023041
v -0.224025 0.134340 -0.000000
v -0.267327 0.134340 -0.000000
v -0.224025 0.134340 -0.023041
v -0.267327 0.134340 -0.023041
v -0.224025 0.134340 -0.042574
v -0.267327 0.134340 -0.042574
vt 0.000000 0.000000
vt 1.000000 0.000000
vt 1.000000 1.000000
vt 0.000000 0.000000
vt 1.000000 0.000000
vt 1.000000 1.000000
vt 1.000000 0.000000
vt 1.000000 1.000000
vt 1.000000 0.000000
vt 1.000000 1.000000
vt 1.000000 0.000000
vt 1.000000 1.000000
vt 1.000000 0.000000
vt 1.000000 1.000000
vt 1.000000 0.000000
vt 1.000000 1.000000
vt 1.000000 0.000000
vt 1.000000 1.000000
vt 1.000000 0.000000
vt 1.000000 1.000000
vt 1.000000 0.000000
vt 1.000000 1.000000
vt 1.000000 0.000000
vt 1.000000 1.000000
vt 1.000000 0.000000
vt 1.000000 1.000000
vt 1.000000 0.000000
vt 1.000000 1.000000
vt 1.000000 0.000000
vt 1.000000 1.000000
vt 1.000000 0.000000
vt 1.000000 1.000000
vt 1.000000 0.000000
vt 1.000000 1.000000
vt 1.000000 0.000000
vt 1.000000 1.000000
vt 1.000000 0.000000
vt 1.000000 1.000000
vt 1.000000 0.000000
vt 1.000000 1.000000
vt 1.000000 0.000000
vt 1.000000 1.000000
vt 1.000000 0.000000
vt 1.000000 1.000000
vt 1.000000 0.000000
vt 1.000000 1.000000
vt 0.000000 0.000000
vt 1.000000 0.000000
vt 1.000000 1.000000
vt 0.000000 1.000000
vt 1.000000 1.000000
vt 1.000000 0.000000
vt 1.000000 1.000000
vt 0.000000 0.000000
vt 1.000000 1.000000
vt 0.000000 1.000000
vt 1.000000 0.000000
vt 1.000000 1.000000
vt 1.000000 0.000000
vt 1.000000 1.000000
vt 0.000000 0.000000
vt 1.000000 0.000000
vt 1.000000 1.000000
vt 0.000000 1.000000
vt 1.000000 1.000000
vt 1.000000 0.000000
vt 1.000000 1.000000
vt 0.000000 0.000000
vt 1.000000 0.000000
vt 1.000000 1.000000
vt 0.000000 1.000000
vt 1.000000 1.000000
vt 1.000000 0.000000
vt 1.000000 1.000000
vt 1.000000 0.000000
vt 1.000000 1.000000
vt 1.000000 0.000000
vt 1.000000 1.000000
vt 0.000000 0.000000
vt 1.000000 0.000000
vt 1.000000 1.000000
vt 0.000000 1.000000
vt 0.000000 0.000000
vt 1.000000 0.000000
vt 1.000000 1.000000
vt 0.000000 0.000000
vt 1.000000 0.000000
vt 1.000000 1.000000
vt 0.000000 1.000000
vt 0.000000 0.000000
vt 1.000000 0.000000
vt 1.000000 1.000000
vt 0.000000 0.000000
vt 0.000000 1.000000
vt 0.000000 0.000000
vt 0.000000 1.000000
vt 0.000000 0.000000
vt 1.000000 1.000000
vt 0.000000 0.000000
vt 0.000000 1.000000
vt 0.000000 0.000000
vt 1.000000 1.000000
vt 0.000000 0.000000
vt 0.000000 1.000000
vt 0.508624 0.452445
vt 0.536996 0.438686
vt 0.539334 0.452445
vt 0.447202 0.452445
vt 0.416492 0.452445
vt 0.418830 0.438686
vt 0.530339 0.427022
vt 0.425487 0.427022
vt 0.520376 0.419229
vt 0.435450 0.419229
vt 0.508624 0.416492
vt 0.447202 0.416492
vt 0.496871 0.419229
vt 0.458955 0.419229
vt 0.486908 0.427022
vt 0.468918 0.427022
vt 0.480251 0.438686
vt 0.475575 0.438686
vt 0.477913 0.452445
vt 0.477913 0.452445
vt 0.480251 0.466203
vt 0.475575 0.466203
vt 0.486908 0.477867
vt 0.468918 0.477867
vt 0.496871 0.485660
vt 0.458955 0.485660
vt 0.508624 0.488397
vt 0.508624 0.532663
vt 0.496871 0.532663
vt 0.447202 0.488397
vt 0.539334 0.471288
vt 0.539334 0.416492
vt 0.561421 0.416492
vt 0.561421 0.471288
vt 0.520376 0.485660
vt 0.435450 0.485660
vt 0.530339 0.477867
vt 0.530339 0.532663
vt 0.520376 0.532663
vt 0.425487 0.477867
vt 0.583508 0.467337
vt 0.583508 0.522133
vt 0.561421 0.522133
vt 0.561421 0.467337
vt 0.536996 0.466203
vt 0.418830 0.466203
vt 0.438579 0.532663
vt 0.438579 0.544327
vt 0.416492 0.544327
vt 0.416492 0.532663
vt 0.438579 0.558086
vt 0.416492 0.558086
vt 0.438579 0.571844
vt 0.416492 0.571844
vt 0.438579 0.583508
vt 0.416492 0.583508
vt 0.447202 0.532663
vt 0.435450 0.532663
vt 0.468918 0.532663
vt 0.458955 0.532663
vt 0.425487 0.532663
vt 0.486908 0.532663
vt 0.000000 0.000000
vt 0.000000 1.000000
vt 0.000000 0.000000
vt 0.000000 1.000000
vt 0.000000 0.000000
vt 0.000000 1.000000
vt 0.000000 0.000000
vt 0.000000 1.000000
vt 0.000000 0.000000
vt 0.000000 1.000000
vt 0.000000 0.000000
vt 0.000000 1.000000
vt 0.000000 0.000000
vt 0.000000 1.000000
vt 0.000000 0.000000
vt 0.000000 1.000000
vt 0.000000 0.000000
vt 0.000000 1.000000
vt 0.000000 0.000000
vt 0.000000 1.000000
vt 0.000000 1.000000
vt 0.000000 0.000000
vt 0.000000 1.000000
vt 0.561421 0.441914
vt 0.561421 0.428156
vt 0.583508 0.428156
vt 0.583508 0.441914
vt 0.561421 0.416492
vt 0.583508 0.416492
vt 0.438579 0.582531
vt 0.438579 0.572612
vt 0.460666 0.572612
vt 0.460666 0.582531
vt 0.438579 0.559652
vt 0.460666 0.559652
vt 0.438579 0.545624
vt 0.460666 0.545624
vt 0.438579 0.532663
vt 0.460666 0.532663
vt 0.539334 0.522133
vt 0.539334 0.510469
vt 0.561421 0.510469
vt 0.561421 0.522133
vt 0.539334 0.496711
vt 0.561421 0.496711
vt 0.539334 0.482952
vt 0.561421 0.482952
vt 0.561421 0.455673
vt 0.583508 0.455673
vn -1.0000 0.0000 0.0000
vn 1.0000 -0.0000 0.0000
vn 0.0000 0.0000 1.0000
vn 0.0000 0.0000 -1.0000
vn 0.0000 1.0000 0.0000
vn -0.6657 0.0000 -0.7462
vn 0.6657 0.0000 -0.7462
vn 0.6657 -0.2855 -0.6894
vn -0.6657 -0.2855 -0.6894
vn 0.6657 -0.5276 -0.5276
vn -0.6657 -0.5276 -0.5276
vn 0.6657 -0.6894 -0.2855
vn -0.6657 -0.6894 -0.2855
vn 0.6657 -0.7462 0.0000
vn -0.6657 -0.7462 0.0000
vn 0.6657 -0.6894 0.2855
vn -0.6657 -0.6894 0.2855
vn 0.6657 -0.5276 0.5276
vn -0.6657 -0.5276 0.5276
vn 0.6657 -0.2855 0.6894
vn -0.6657 -0.2855 0.6894
vn 0.6657 0.0000 0.7462
vn -0.6657 0.0000 0.7462
vn 0.6657 0.2855 0.6894
vn -0.6657 0.2855 0.6894
vn 0.7786 0.1821 0.6004
vn -0.7786 0.1821 0.6004
vn -0.7786 0.1821 -0.6004
vn 0.7786 0.1821 -0.6004
vn 0.6657 0.2855 -0.6894
vn -0.6657 0.2855 -0.6894
usemtl None
s off
f 1/1/1 3/2/1 5/3/1
f 2/4/2 6/5/2 4/6/2
f 1/1/1 5/7/1 7/8/1
f 2/4/2 8/9/2 6/10/2
f 1/1/1 7/11/1 9/12/1
f 2/4/2 10/13/2 8/14/2
f 1/1/1 9/15/1 11/16/1
f 2/4/2 12/17/2 10/18/2
f 1/1/1 11/19/1 13/20/1
f 2/4/2 14/21/2 12/22/2
f 1/1/1 13/23/1 15/24/1
f 2/4/2 16/25/2 14/26/2
f 1/1/1 15/27/1 17/28/1
f 2/4/2 18/29/2 16/30/2
f 1/1/1 17/31/1 19/32/1
f 2/4/2 20/33/2 18/34/2
f 1/1/1 19/35/1 21/36/1
f 2/4/2 22/37/2 20/38/2
f 1/1/1 21/39/1 23/40/1
f 2/4/2 24/41/2 22/42/2
f 1/1/1 23/43/1 25/44/1
f 2/4/2 26/45/2 24/46/2
f 27/47/1 25/48/1 37/49/1 39/50/1
f 1/1/1 25/48/1 27/51/1
f 2/4/2 28/52/2 26/53/2
f 23/54/3 24/41/3 36/55/3 35/56/3
f 1/1/1 27/57/1 29/58/1
f 2/4/2 30/59/2 28/60/2
f 31/61/1 29/62/1 41/63/1 43/64/1
f 1/1/1 29/62/1 31/65/1
f 2/4/2 32/66/2 30/67/2
f 32/68/4 31/69/4 43/70/4 44/71/4
f 1/1/1 31/69/1 33/72/1
f 2/4/2 34/73/2 32/74/2
f 1/1/1 33/75/1 3/76/1
f 2/4/2 4/77/2 34/78/2
f 35/79/5 36/80/5 38/81/5 37/82/5
f 37/83/5 38/84/5 40/85/5 39/50/5
f 39/86/5 40/87/5 42/88/5 41/89/5
f 41/90/5 42/91/5 44/92/5 43/64/5
f 28/93/2 30/59/2 42/88/2 40/94/2
f 24/95/2 26/45/2 38/81/2 36/96/2
f 29/97/1 27/57/1 39/98/1 41/89/1
f 30/99/2 32/66/2 44/92/2 42/100/2
f 25/101/1 23/43/1 35/102/1 37/82/1
f 26/103/2 28/52/2 40/85/2 38/104/2
f 45/105/2 49/106/2 47/107/2
f 46/108/1 48/109/1 50/110/1
f 45/105/2 51/111/2 49/106/2
f 46/108/1 50/110/1 52/112/1
f 45/105/2 53/113/2 51/111/2
f 46/108/1 52/112/1 54/114/1
f 45/105/2 55/115/2 53/113/2
f 46/108/1 54/114/1 56/116/1
f 45/105/2 57/117/2 55/115/2
f 46/108/1 56/116/1 58/118/1
f 45/105/2 59/119/2 57/117/2
f 46/108/1 58/118/1 60/120/1
f 45/105/2 61/121/2 59/119/2
f 46/108/1 60/120/1 62/122/1
f 45/105/2 63/123/2 61/121/2
f 46/108/1 62/122/1 64/124/1
f 45/105/2 65/125/2 63/123/2
f 46/108/1 64/124/1 66/126/1
f 45/105/2 67/127/2 65/125/2
f 46/108/1 66/126/1 68/128/1
f 45/105/2 69/129/2 67/127/2
f 46/108/1 68/128/1 70/130/1
f 71/131/2 83/132/2 81/133/2 69/129/2
f 45/105/2 71/131/2 69/129/2
f 46/108/1 70/130/1 72/134/1
f 67/135/3 79/136/3 80/137/3 68/138/3
f 45/105/2 73/139/2 71/131/2
f 46/108/1 72/134/1 74/140/1
f 75/141/2 87/142/2 85/143/2 73/139/2
f 45/105/2 75/141/2 73/139/2
f 46/108/1 74/140/1 76/144/1
f 76/145/4 88/146/4 87/147/4 75/148/4
f 45/105/2 77/149/2 75/141/2
f 46/108/1 76/144/1 78/150/1
f 45/105/2 47/107/2 77/149/2
f 46/108/1 78/150/1 48/109/1
f 79/151/5 81/152/5 82/153/5 80/154/5
f 81/152/5 83/155/5 84/156/5 82/153/5
f 83/155/5 85/157/5 86/158/5 84/156/5
f 85/157/5 87/159/5 88/160/5 86/158/5
f 72/134/1 84/161/1 86/162/1 74/140/1
f 68/128/1 80/163/1 82/164/1 70/130/1
f 73/139/2 85/143/2 83/132/2 71/131/2
f 74/140/1 86/162/1 88/165/1 76/144/1
f 69/129/2 81/133/2 79/166/2 67/127/2
f 70/130/1 82/164/1 84/161/1 72/134/1
s 1
f 3/167/6 4/77/7 6/10/8 5/168/9
f 5/169/9 6/5/8 8/14/10 7/170/11
f 7/171/11 8/9/10 10/18/12 9/172/13
f 9/173/13 10/13/12 12/22/14 11/174/15
f 11/175/15 12/17/14 14/26/16 13/176/17
f 13/177/17 14/21/16 16/30/18 15/178/19
f 15/179/19 16/25/18 18/34/20 17/180/21
f 17/181/21 18/29/20 20/38/22 19/182/23
f 19/183/23 20/33/22 22/42/24 21/184/25
f 21/185/25 22/37/24 24/46/26 23/186/27
f 31/61/28 32/66/29 34/78/30 33/187/31
f 33/188/31 34/73/30 4/6/7 3/189/6
f 47/190/7 49/191/8 50/192/9 48/193/6
f 49/191/8 51/194/10 52/195/11 50/192/9
f 51/196/10 53/197/12 54/198/13 52/199/11
f 53/197/12 55/200/14 56/201/15 54/198/13
f 55/200/14 57/202/16 58/203/17 56/201/15
f 57/202/16 59/204/18 60/205/19 58/203/17
f 59/206/18 61/207/20 62/208/21 60/209/19
f 61/207/20 63/210/22 64/211/23 62/208/21
f 63/210/22 65/212/24 66/213/25 64/211/23
f 65/212/24 67/135/26 68/138/27 66/213/25
f 75/148/29 77/214/30 78/215/31 76/145/28
f 77/214/30 47/190/7 48/193/6 78/215/31
