# Blender v2.79 (sub 0) OBJ File: ''
# www.blender.org
mtllib strip.mtl
v -0.250000 0.000000 -0.050000
v 0.250000 0.000000 -0.050000
v -0.250000 -0.019134 -0.046194
v 0.250000 -0.019134 -0.046194
v -0.250000 -0.035355 -0.035355
v 0.250000 -0.035355 -0.035355
v -0.250000 -0.046194 -0.019134
v 0.250000 -0.046194 -0.019134
v -0.250000 -0.050000 0.000000
v 0.250000 -0.050000 0.000000
v -0.250000 -0.046194 0.019134
v 0.250000 -0.046194 0.019134
v -0.250000 -0.035355 0.035355
v 0.250000 -0.035355 0.035355
v -0.250000 -0.019134 0.046194
v 0.250000 -0.019134 0.046194
v -0.250000 0.000000 0.050000
v 0.250000 -0.000000 0.050000
v -0.250000 0.019134 0.046194
v 0.250000 0.019134 0.046194
v -0.250000 0.035355 0.035355
v 0.250000 0.035355 0.035355
v -0.250000 0.046194 0.019134
v 0.250000 0.046194 0.019134
v -0.250000 0.050000 -0.000000
v 0.250000 0.050000 -0.000000
v -0.250000 0.046194 -0.019134
v 0.250000 0.046194 -0.019134
v -0.250000 0.035355 -0.035355
v 0.250000 0.035355 -0.035355
v -0.250000 0.019134 -0.046194
v 0.250000 0.019134 -0.046194
vt 0.250000 1.000000
vt 0.250000 0.000000
vt 0.299728 0.000000
vt 0.299728 1.000000
vt 0.799728 1.000000
vt 0.799728 0.000000
vt 0.864701 0.000000
vt 0.864701 1.000000
vt 0.935027 0.000000
vt 0.935027 1.000000
vt 1.000000 0.000000
vt 1.000000 1.000000
vt 0.599456 0.000000
vt 0.599456 1.000000
vt 0.549728 1.000000
vt 0.549728 0.000000
vt 0.484755 1.000000
vt 0.484755 0.000000
vt 0.414429 1.000000
vt 0.414429 0.000000
vt 0.349456 1.000000
vt 0.349456 0.000000
vt 0.299728 1.000000
vt 0.299728 0.000000
vt 0.799728 0.000000
vt 0.799728 1.000000
vt 0.734755 1.000000
vt 0.734755 0.000000
vt 0.664429 1.000000
vt 0.664429 0.000000
vt 0.599456 1.000000
vt 0.599456 0.000000
vt 0.000000 1.000000
vt 0.000000 0.000000
vt 0.049728 0.000000
vt 0.049728 1.000000
vt 0.114701 0.000000
vt 0.114701 1.000000
vt 0.185027 0.000000
vt 0.185027 1.000000
vn 0.0000 0.0000 -1.0000
vn 0.0000 -0.3827 -0.9239
vn 0.0000 -0.7071 -0.7071
vn 0.0000 -0.9239 -0.3827
vn 0.0000 -1.0000 0.0000
vn 0.0000 -0.9239 0.3827
vn 0.0000 -0.7071 0.7071
vn 0.0000 -0.3827 0.9239
vn 0.0000 0.0000 1.0000
vn 0.0000 0.3827 0.9239
vn 0.0000 0.7071 0.7071
vn 0.0000 0.9239 0.3827
vn 0.0000 1.0000 0.0000
vn 0.0000 0.9239 -0.3827
vn 0.0000 0.7071 -0.7071
vn 0.0000 0.3827 -0.9239
usemtl None
s 1
f 1/1/1 2/2/1 4/3/2 3/4/2
f 3/5/2 4/6/2 6/7/3 5/8/3
f 5/8/3 6/7/3 8/9/4 7/10/4
f 7/10/4 8/9/4 10/11/5 9/12/5
f 9/13/5 10/14/5 12/15/6 11/16/6
f 11/16/6 12/15/6 14/17/7 13/18/7
f 13/18/7 14/17/7 16/19/8 15/20/8
f 15/20/8 16/19/8 18/21/9 17/22/9
f 17/22/9 18/21/9 20/23/10 19/24/10
f 19/25/10 20/26/10 22/27/11 21/28/11
f 21/28/11 22/27/11 24/29/12 23/30/12
f 23/30/12 24/29/12 26/31/13 25/32/13
f 25/33/13 26/34/13 28/35/14 27/36/14
f 27/36/14 28/35/14 30/37/15 29/38/15
f 29/38/15 30/37/15 32/39/16 31/40/16
f 31/40/16 32/39/16 2/2/1 1/1/1
